<mxfile host="app.diagrams.net" agent="Mozilla/5.0 (Macintosh; Intel Mac OS X 10_15_7) AppleWebKit/537.36 (KHTML, like Gecko) Chrome/128.0.0.0 Safari/537.36" version="24.7.8">
  <diagram name="第 1 页" id="4ccPxv3fO4iCMRWOCSq1">
    <mxGraphModel dx="928" dy="625" grid="0" gridSize="10" guides="1" tooltips="1" connect="1" arrows="1" fold="1" page="0" pageScale="1" pageWidth="827" pageHeight="1169" math="0" shadow="0">
      <root>
        <mxCell id="0" />
        <mxCell id="1" parent="0" />
        <mxCell id="QZuKJVNfVAWlTRLgRaYV-1" value="block0" style="rounded=1;whiteSpace=wrap;html=1;fillColor=#dae8fc;strokeColor=#6c8ebf;" vertex="1" parent="1">
          <mxGeometry x="99" y="176" width="55" height="55" as="geometry" />
        </mxCell>
        <mxCell id="QZuKJVNfVAWlTRLgRaYV-2" value="block0" style="rounded=1;whiteSpace=wrap;html=1;fillColor=#dae8fc;strokeColor=#6c8ebf;" vertex="1" parent="1">
          <mxGeometry x="178" y="176" width="55" height="55" as="geometry" />
        </mxCell>
        <mxCell id="QZuKJVNfVAWlTRLgRaYV-3" value="block0" style="rounded=1;whiteSpace=wrap;html=1;fillColor=#d5e8d4;strokeColor=#82b366;" vertex="1" parent="1">
          <mxGeometry x="262" y="176" width="55" height="55" as="geometry" />
        </mxCell>
        <mxCell id="QZuKJVNfVAWlTRLgRaYV-4" value="block0" style="rounded=1;whiteSpace=wrap;html=1;fillColor=#dae8fc;strokeColor=#6c8ebf;" vertex="1" parent="1">
          <mxGeometry x="339" y="176" width="55" height="55" as="geometry" />
        </mxCell>
        <mxCell id="QZuKJVNfVAWlTRLgRaYV-5" value="block0" style="rounded=1;whiteSpace=wrap;html=1;fillColor=#dae8fc;strokeColor=#6c8ebf;" vertex="1" parent="1">
          <mxGeometry x="416" y="176" width="55" height="55" as="geometry" />
        </mxCell>
        <mxCell id="QZuKJVNfVAWlTRLgRaYV-6" value="block0" style="rounded=1;whiteSpace=wrap;html=1;fillColor=#dae8fc;strokeColor=#6c8ebf;" vertex="1" parent="1">
          <mxGeometry x="501" y="176" width="55" height="55" as="geometry" />
        </mxCell>
        <mxCell id="QZuKJVNfVAWlTRLgRaYV-7" value="block0" style="rounded=1;whiteSpace=wrap;html=1;fillColor=#d5e8d4;strokeColor=#82b366;" vertex="1" parent="1">
          <mxGeometry x="744" y="176" width="55" height="55" as="geometry" />
        </mxCell>
        <mxCell id="QZuKJVNfVAWlTRLgRaYV-8" value="sm" style="rounded=1;whiteSpace=wrap;html=1;" vertex="1" parent="1">
          <mxGeometry x="99" y="297" width="151" height="55" as="geometry" />
        </mxCell>
        <mxCell id="QZuKJVNfVAWlTRLgRaYV-15" value="sm" style="rounded=1;whiteSpace=wrap;html=1;" vertex="1" parent="1">
          <mxGeometry x="291" y="297" width="151" height="55" as="geometry" />
        </mxCell>
        <mxCell id="QZuKJVNfVAWlTRLgRaYV-16" value="sm" style="rounded=1;whiteSpace=wrap;html=1;" vertex="1" parent="1">
          <mxGeometry x="474" y="297" width="151" height="55" as="geometry" />
        </mxCell>
        <mxCell id="QZuKJVNfVAWlTRLgRaYV-17" value="sm" style="rounded=1;whiteSpace=wrap;html=1;" vertex="1" parent="1">
          <mxGeometry x="764" y="297" width="151" height="55" as="geometry" />
        </mxCell>
        <mxCell id="QZuKJVNfVAWlTRLgRaYV-30" style="edgeStyle=orthogonalEdgeStyle;rounded=0;orthogonalLoop=1;jettySize=auto;html=1;exitX=0.5;exitY=1;exitDx=0;exitDy=0;entryX=0.185;entryY=0.036;entryDx=0;entryDy=0;entryPerimeter=0;" edge="1" parent="1" source="QZuKJVNfVAWlTRLgRaYV-1" target="QZuKJVNfVAWlTRLgRaYV-8">
          <mxGeometry relative="1" as="geometry">
            <mxPoint x="127" y="293" as="targetPoint" />
          </mxGeometry>
        </mxCell>
        <mxCell id="QZuKJVNfVAWlTRLgRaYV-33" style="edgeStyle=orthogonalEdgeStyle;rounded=0;orthogonalLoop=1;jettySize=auto;html=1;exitX=0.5;exitY=1;exitDx=0;exitDy=0;entryX=0.702;entryY=0;entryDx=0;entryDy=0;entryPerimeter=0;" edge="1" parent="1" source="QZuKJVNfVAWlTRLgRaYV-2" target="QZuKJVNfVAWlTRLgRaYV-8">
          <mxGeometry relative="1" as="geometry">
            <mxPoint x="205" y="290" as="targetPoint" />
          </mxGeometry>
        </mxCell>
        <mxCell id="QZuKJVNfVAWlTRLgRaYV-34" style="rounded=0;orthogonalLoop=1;jettySize=auto;html=1;exitX=0.5;exitY=1;exitDx=0;exitDy=0;entryX=0.132;entryY=-0.036;entryDx=0;entryDy=0;entryPerimeter=0;" edge="1" parent="1" source="QZuKJVNfVAWlTRLgRaYV-3" target="QZuKJVNfVAWlTRLgRaYV-15">
          <mxGeometry relative="1" as="geometry" />
        </mxCell>
        <mxCell id="QZuKJVNfVAWlTRLgRaYV-35" style="rounded=0;orthogonalLoop=1;jettySize=auto;html=1;exitX=0.5;exitY=1;exitDx=0;exitDy=0;entryX=0;entryY=0;entryDx=0;entryDy=0;" edge="1" parent="1" source="QZuKJVNfVAWlTRLgRaYV-4" target="QZuKJVNfVAWlTRLgRaYV-16">
          <mxGeometry relative="1" as="geometry" />
        </mxCell>
        <mxCell id="QZuKJVNfVAWlTRLgRaYV-36" style="rounded=0;orthogonalLoop=1;jettySize=auto;html=1;exitX=0.5;exitY=1;exitDx=0;exitDy=0;" edge="1" parent="1" source="QZuKJVNfVAWlTRLgRaYV-5">
          <mxGeometry relative="1" as="geometry">
            <mxPoint x="503" y="294" as="targetPoint" />
          </mxGeometry>
        </mxCell>
        <mxCell id="QZuKJVNfVAWlTRLgRaYV-37" style="edgeStyle=orthogonalEdgeStyle;rounded=0;orthogonalLoop=1;jettySize=auto;html=1;exitX=0.5;exitY=1;exitDx=0;exitDy=0;entryX=0.364;entryY=0.018;entryDx=0;entryDy=0;entryPerimeter=0;" edge="1" parent="1" source="QZuKJVNfVAWlTRLgRaYV-6" target="QZuKJVNfVAWlTRLgRaYV-16">
          <mxGeometry relative="1" as="geometry" />
        </mxCell>
        <mxCell id="QZuKJVNfVAWlTRLgRaYV-38" style="rounded=0;orthogonalLoop=1;jettySize=auto;html=1;exitX=0.5;exitY=1;exitDx=0;exitDy=0;entryX=0.298;entryY=0;entryDx=0;entryDy=0;entryPerimeter=0;" edge="1" parent="1" source="QZuKJVNfVAWlTRLgRaYV-7" target="QZuKJVNfVAWlTRLgRaYV-17">
          <mxGeometry relative="1" as="geometry" />
        </mxCell>
      </root>
    </mxGraphModel>
  </diagram>
</mxfile>
